<svg width="750.0000000000001" height="750.0000000000001" xmlns="http://www.w3.org/2000/svg">

 <g>
  <title>background</title>
  <rect fill="none" id="canvas_background" height="402" width="582" y="-1" x="-1"/>
 </g>
 <g>
  <title>Layer 1</title>
  <circle fill="#ff5252" id="svg_2" r="12.3" cy="519.8" cx="618" class="st0"/>
  <circle fill="#ff5252" id="svg_3" r="6.6" cy="519.8" cx="583" class="st0"/>
  <circle fill="#ff5252" id="svg_4" r="6.6" cy="519.8" cx="553.7" class="st0"/>
  <path fill="#ff5252" id="svg_5" d="m741.8,589.8l-46.3,-46.1l0,-392.4c0,-6.9 -5.6,-12.5 -12.5,-12.5l-616,0c-6.9,0 -12.5,5.6 -12.5,12.5l0,392.4l-46.3,46.1c-3.6,3.6 -4.7,9 -2.7,13.6c1.9,4.7 6.5,7.7 11.6,7.7l716,0c5.1,0 9.6,-3.1 11.6,-7.7c1.8,-4.6 0.7,-10 -2.9,-13.6zm-662.3,-426l591,0l0,372.6l-591,0l0,-372.6zm-32.2,422.4l24.9,-24.8l605.7,0l24.9,24.8l-655.5,0z" class="st0"/>
  <path fill="#ff5252" id="svg_6" d="m644.2,178.1l-538.4,0c-6.9,0 -12.5,5.6 -12.5,12.5l0,298.3c0,6.9 5.6,12.5 12.5,12.5l538.4,0c6.9,0 12.5,-5.6 12.5,-12.5l0,-298.3c0,-6.9 -5.6,-12.5 -12.5,-12.5zm-12.5,298.3l-513.4,0l0,-273.3l513.4,0l0,273.3z" class="st0"/>
 </g>
</svg>