<?xml version="1.0" encoding="utf-8"?>
<!-- Generator: Adobe Illustrator 23.0.6, SVG Export Plug-In . SVG Version: 6.00 Build 0)  -->
<svg version="1.1" id="Capa_1" xmlns="http://www.w3.org/2000/svg" xmlns:xlink="http://www.w3.org/1999/xlink" x="0px" y="0px"
	 viewBox="0 0 800 400" style="enable-background:new 0 0 800 400;" xml:space="preserve">
<style type="text/css">
	.st0{fill:#606060;}
	.st1{fill:#56597A;}
	.st2{fill:#B4C7E7;}
	.st3{fill:#57455D;}
	.st4{display:none;fill:#56597A;}
	.st5{fill:#F7D06F;}
	.st6{fill:#FFFFFF;}
	.st7{display:none;fill:#57455D;}
	.st8{fill:#74A2D6;}
	.st9{fill:#EF86B0;}
	.st10{fill:#F7D3BC;}
</style>
<rect x="749.9" y="384.9" class="st0" width="50.1" height="34.4"/>
<rect x="705.3" y="423.6" class="st0" width="46.1" height="34.4"/>
<polyline class="st1" points="0.8,-4.5 800.8,-4.5 800.8,398.7 0.8,398.7 0.8,-4.5 "/>
<rect x="750.7" y="381.9" class="st2" width="13.6" height="0"/>
<rect x="0.4" y="370.1" class="st2" width="798.2" height="29.9"/>
<path class="st2" d="M41.7,412.8"/>
<path class="st2" d="M26.1,458"/>
<path class="st3" d="M453.3,369c0,0,40.7-9.6,43.1-30.4"/>
<g>
	<path class="st4" d="M776,147.3c-22.1-38.5-60.6-73.9-113.7-99.9C606.5,20,537.7,3.7,466.2-2.1C393.5-8,318.6-3.4,248.9,9.9
		C178.3,23.4,107.4,45.8,58.2,79.3C32,97,13.4,118.1,6.3,141.3c-7.7,25.3-3.6,51,4.2,76.2c15,47.6,45.2,94.3,93.2,133.9
		c11.8,9.7,24.4,18.9,38,27.6c2.1,1.4,4.6,1.8,6.9,1.4c0.8,0.1,1.6,0.4,2.4,0.4c94.7,6,189.4,13.3,284.5,16.7
		c88.1,3.1,181.8,1.8,264.4-18.8c36.7-9.1,53.7-27.2,68-48.2c13.5-19.6,22.4-40.1,27.3-61.2C804.5,228.5,798.4,186.2,776,147.3z"/>
	<path class="st5" d="M170.2,161c-2.8,0.1-4.8,0.9-6.4,2.4c-0.1-0.1-0.4-0.3-0.5-0.4c-1.5-1.3-1.5-3.7-1.3-5.6
		c0.3-3.4-3.3-4.6-5.8-3.3c-2.3,0.3-4.4,2.1-3.8,4.9c0.7,3.7-0.8,7-3.6,9.4c-3.3,3.8,1.7,9,5.6,5.6c2.6-3,5.2,1.7,5.7,4
		c1.2,4.1,8.3,3.6,7.8-1.1c-0.1-1.2-0.5-4-0.1-5.8c2.3-0.7,4.4-2.1,5.7-4.2C175.3,164.5,173.1,160.9,170.2,161z"/>
	<path class="st5" d="M622.8,272.7c-3.7,0-4-4.6-4-7.3c0-1.9-1.1-3-2.4-3.4c-1.9-2.5-6.4-2.9-7,0.9c-0.4,2.8-2,5.3-4.4,6.6
		c-1.7,0-3.4,0.5-5,1.5c-3.2,1.9-2.1,7.8,2,7.4c1.5-0.1,2.8-0.4,4.1-0.9c1.9,0.8,2.5,4.5,2.6,6.2c0.1,4.5,6.4,5.3,7.8,1.1
		c0.9-2.8,3.4-4.1,6.2-4C628,280.6,628,272.8,622.8,272.7z"/>
	<path class="st2" d="M794.6,353.1c-8-6.6-29.7-10.8-49.3-13.5c-62.1-8.5-132.5-12.7-200.1-14.2c-70.3-1.5-140.8,0.6-209.2,5.9
		c-2,0.2-3.5,0.5-4.3,0.9c-38.5,1-76.9,2.6-115,4.9c-32,2-64,4.6-95.1,7.6c-28.6,2.8-58.6,5.6-85.2,10c-19,3.2-36,8.2-36,15.4
		c0,6.8,15.6,12.1,32.8,15.7c22.7,4.9,51,7,77.6,8.9c30.8,2.1,62,3.4,93.4,4.1c134,3.2,272.4,0.4,403.9-8
		c56.4-3.6,119.5-8.7,165.4-20C791.2,366.6,803.3,360.1,794.6,353.1z"/>
	<path class="st5" d="M114,11.6c-2.8,0.5-4.6-1.1-4.9-3.3c0.4-1.7,0.5-3.4,0.4-5.3c-0.3-5-8.2-5.2-7.9,0c0,0.4,0,0.7,0,0.9l0,0
		c-0.3,1.1-0.4,2.1-0.4,3.2c-0.9,3.7-3.4,6.8-7.3,8.1l0,0c-0.3,0.1-0.7,0.3-0.9,0.4c-4.1,1.9-1.2,8.9,3,7.3c0.4-0.1,0.7-0.3,1.1-0.4
		c2.6-1.2,4.6,0.5,6.1,2.9c0.3,2.9,1.5,5.8,3.7,8.3c2.6,2.9,7.8-0.1,6.6-3.8c-0.7-2.1-1.5-4.2-2.5-6.2c0.4-2.3,2.5-4.1,5.3-4.6
		C121.2,18.4,119.1,10.8,114,11.6z"/>
	<path class="st5" d="M454.5,29.8c-4.8,1.6-5-4.4-4.5-7.1c0.5-2.9-2-4.9-4.2-5c-2.6-2-7.5,0.1-6.2,4.1c1.9,5.6-0.3,10.9-5,13.9
		c-0.4,0.3-0.9,0.5-1.3,0.8c-4.4,2.8-0.5,9.1,4,6.9c3.3-2.1,6-0.1,7.9,2.8c0.5,2.4,1.9,4.6,3.7,6.8c3.3,3.6,7.9-0.9,6.2-4.8
		c-0.7-1.5-1.5-3-2.5-4.5c-0.4-2.6,1.1-5.2,4.1-6.2C461.4,35.8,459.4,28.1,454.5,29.8z"/>
	<path class="st5" d="M367.3,91.7c-1.1,0-2.1,0.1-3,0.4c-4.2,0-6.9-3.6-6.4-8.2c0.3-2.3-1.3-3.6-3-3.7c-2.5-3.2-8.5-1.1-7,3.3
		c1.9,5,0.8,10.1-2.5,13.7c-0.7,0.5-1.2,1.1-1.7,1.7c-3.3,4,1.7,8.9,5.6,5.6c0.3-0.3,0.5-0.5,0.8-0.8c2.8-1.9,5.4,2.6,6.6,5.2
		c0.1,0.3,0.1,0.4,0.3,0.7c2.5,4.6,8.9,0.5,6.9-4c-0.1-0.1-0.1-0.4-0.3-0.5c-0.9-2.4,0.1-4.5,2.4-5.2c0.9,0,1.7-0.1,2.6-0.4
		C372.7,98.5,371.8,91.6,367.3,91.7z"/>
	<path class="st5" d="M595.7,170c-4.8,1.2-8.9-0.8-10.7-4.8c-0.1-1.7-0.4-3.4-1.1-5.2c-0.1-0.5-0.3-1.1-0.5-1.5
		c-0.3-0.7-0.7-1.3-1.1-2c-2.5-4.4-9.4-0.4-6.9,4c0.3,0.4,0.4,0.8,0.7,1.2c0.1,1.7,0.4,3.4,0.9,5c-0.1,2.4-0.9,4.6-2.4,6.6
		c-2,1.1-3.8,2.6-5.3,4.8c-2.4,3.4,2.1,7.1,5.4,5.4c2-1.1,3.6-2.4,5-4c2.9-0.5,5.8,1.9,6.4,5.3c0.8,5,8.5,2.9,7.7-2.1
		c-0.4-2.6,1.5-4.8,3.8-5.4C602.9,176.3,600.8,168.7,595.7,170z"/>
	<path class="st6" d="M239.3,135.7c-5.2,0-5.2,7.9,0,7.9C244.3,143.7,244.3,135.7,239.3,135.7z"/>
	<path class="st6" d="M271.9,183c-5.2,0-5.2,7.9,0,7.9C276.9,190.9,276.9,183,271.9,183z"/>
	<path class="st6" d="M268.1,295.2c-5.2,0-5.2,7.9,0,7.9C273.1,303.1,273.1,295.2,268.1,295.2z"/>
	<path class="st6" d="M296,240.1c-5.2,0-5.2,7.9,0,7.9C301,248,301,240.1,296,240.1z"/>
	<path class="st6" d="M462.6,295.1c-5.2,0-5.2,7.9,0,7.9S467.8,295.1,462.6,295.1z"/>
	<path class="st6" d="M608.6,209.2c-2.1,0.1-4,1.7-4,4v1.2c0,2.1,1.9,4.1,4,4c2.1-0.1,4-1.7,4-4v-1.2
		C612.6,211,610.7,209.1,608.6,209.2z"/>
	<path class="st6" d="M562.5,211.3c-5.2,0-5.2,7.9,0,7.9C567.6,219.2,567.6,211.3,562.5,211.3z"/>
	<path class="st6" d="M535.2,163.2c-5.2,0-5.2,7.9,0,7.9C540.3,171,540.3,163.2,535.2,163.2z"/>
	<path class="st6" d="M503,80c-5.2,0-5.2,7.9,0,7.9S508.2,80,503,80z"/>
	<path class="st6" d="M413.7,72.1c-5.2,0-5.2,7.9,0,7.9C418.7,80,418.8,72.1,413.7,72.1z"/>
	<path class="st6" d="M375.3,31c-2.1,0.1-4,1.7-4,4v1.2c0,2.1,1.9,4.1,4,4c2.1-0.1,4-1.7,4-4V35C379.2,32.8,377.4,30.9,375.3,31z"/>
	<path class="st6" d="M315.2,76.1c-5.2,0-5.2,7.9,0,7.9C320.4,83.9,320.4,76.1,315.2,76.1z"/>
	<path class="st6" d="M398.5,299.1c-5.2,0-5.2,7.9,0,7.9C403.6,307,403.6,299.1,398.5,299.1z"/>
	<path class="st3" d="M435.8,352.5c-1.1-1.1-2.4-1.2-3.4-0.9h-0.1c-7.3-0.8-17.2,0.8-22.3,6.8c-4.6,5.3-0.8,12.1,5,14.3
		c6.8,2.5,16,0.1,21.9-3.6C443.9,364.6,440.6,357,435.8,352.5z M594.9,366c-0.8,0.8-3.3,1.3-4.2,1.6c-2.8,0.9-7.7,2.5-10.3,0.7
		c-1.9-1.3-1.3-1.7,0.5-2.9c1.3-0.9,2.8-1.5,4.2-1.9c3.2-0.9,6.4-1.2,9.5-0.8C595.5,363.6,596,364.7,594.9,366z"/>
	<path class="st3" d="M551.3,377.5c-0.7-2.3-2.8-3-4.9-2.8c-3.8,0.5-7.7,1.1-11.5,1.6c-2.1,0.3-3.3,3-2.8,4.9c0.7,2.3,2.8,3,4.9,2.8
		c3.8-0.5,7.7-1.1,11.5-1.6C550.6,382,551.8,379.5,551.3,377.5z"/>
	<path class="st3" d="M142.6,360.2l-13,3c-5,1.2-2.9,8.9,2.1,7.7c4.4-1.1,8.7-2,13-3C149.6,366.7,147.5,359.1,142.6,360.2z"/>
	<path class="st3" d="M276.7,350.7c-0.7-2.3-2.8-3.2-4.9-2.8c-2.5,0.4-5,0.8-7.5,1.2c-2.1,0.4-3.3,3-2.8,4.9
		c0.7,2.3,2.8,3.2,4.9,2.8c2.5-0.4,5-0.8,7.5-1.2C276.1,355.2,277.3,352.5,276.7,350.7z"/>
	<path class="st3" d="M241.8,373.4c-5.7-3.8-14.6-4.4-22.8-3.6c-1-0.1-2.1-0.1-3.3,0.1c-1.3,0.4-2.8,0.7-4.2,1.1
		c-1,0.3-1.8,0.5-2.7,0.7c-0.1,0.1-0.6,0.1-0.7,0.3c-7.5,2.3-15.6,5.8-11.6,11c5.1,6.8,23.4,5.1,32.3,3.2
		C236.7,384.5,251,379.7,241.8,373.4z M230.3,378.1c-2.4,0.8-5.7,1.4-8.5,1.8c-2.4,0.4-4.8,0.5-7.5,0.5c-1.7,0-3.7-0.4-5.4-0.4
		c0.6-0.3,1.1-0.5,1.7-0.7c2.3-0.8,4.5-1.5,6.9-2.2c4.1-0.8,8.2-0.8,12.6,0C232.4,377.6,233.1,377.1,230.3,378.1z"/>
	<path class="st3" d="M306.3,379.5h-6.1c-2.1,0-4.1,1.9-4,4c0.1,2.1,1.7,4,4,4h6.1c2.1,0,4.1-1.9,4-4
		C310.1,381.4,308.5,379.5,306.3,379.5z"/>
	<path class="st3" d="M754.4,359.3c-5.7,0.5-11.4,1.1-17,1.6c-5,0.5-5,8.5,0,7.9c5.7-0.5,11.4-1.1,17-1.6
		C759.5,366.6,759.5,358.8,754.4,359.3z"/>
	<path class="st3" d="M385.9,378.2c-4.1-0.4-7.9-0.1-12,0.7c-2.1,0.4-3.3,2.9-2.8,4.9c0.7,2.3,2.8,3.2,4.9,2.8
		c3.3-0.5,6.6-0.7,9.9-0.3c2.1,0.1,4-2,4-4C389.9,379.9,388,378.5,385.9,378.2z"/>
	<path class="st7" d="M160,422.5c-2.8,0.3-5.4,0.5-8.2,0.7c-2.1,0.1-4,1.7-4,4c0,2,1.9,4.1,4,4c2.8-0.3,5.4-0.5,8.2-0.7
		c2.1-0.1,4-1.7,4-4C164,424.5,162.1,422.3,160,422.5z"/>
	<g>
		<path class="st8" d="M121.7,224.4c-1.5-18.4-15.9-32.9-33.5-34.7c-15.3-7.3-35-3.4-46.4,9.3c-13.4,14.7-14.3,37.8-4.6,54.6
			C60.4,293.1,125,268.2,121.7,224.4z"/>
		<path class="st3" d="M91,246.4c-9.7,5.2-20.2,6.8-30.7,4.5c-5-1.1-7.1,6.6-2.1,7.7c12.8,2.6,25.3,0.9,37-5.3
			C99.5,250.8,95.5,244,91,246.4z"/>
		<path class="st3" d="M78.9,208.7c-12,4.9-24.3,8.1-37.2,9.4c-5,0.5-5,8.5,0,7.9c13.6-1.5,26.6-4.6,39.3-9.7
			C85.6,214.5,83.5,206.9,78.9,208.7z"/>
		<path class="st3" d="M107.4,223.3h-4.6c-2.1,0-4.1,1.9-4,4c0.1,2.1,1.7,4,4,4h4.6c2.1,0,4.1-1.9,4-4
			C111.4,225,109.7,223.3,107.4,223.3z"/>
	</g>
	<g>
		<path class="st9" d="M748.2,216.9c1.1-5.7,0.5-11.4-2.3-16.8c-3.6-7-10.3-11.8-17.6-13.3c-0.1-0.1-0.4-0.1-0.5-0.3
			c-13.8-4.8-29.7-0.5-38.4,11.3c-8.5,11.5-8.1,28.8,0.9,39.9c9,11.1,25.7,15.4,38.8,9.5C740.8,242.2,748.7,229.6,748.2,216.9z"/>
		<path class="st5" d="M752.7,227.2c-4.1-3-8.5,3.6-4.5,6.6c1.5,1.5,1.3,2.6-0.3,3.4c-1.1,1.6-2.4,1.7-4.1,0.4
			c-2.4-0.7-4.8-1.6-7.1-2.4c-4-1.3-7.9-2.8-11.8-4.4c-9-3.4-17.8-7.3-26.5-11.4c-8.7-4.2-17.4-8.6-25.6-13.5
			c-1.3-0.8-2.9-1.6-4-2.8c-2-2-2.9-2.6-0.3-4.2c3.8-2.3,11.1-0.1,14.7,1.3c4.8,1.9,7.3-5.7,2.5-7.5c-7.5-2.9-30.6-4.9-26.8,9.5
			c1.6,6,7.5,9.3,12.6,12.1c7.5,4.4,15.3,8.3,23.2,12.1c8.3,4,16.7,7.7,25.2,11c7.8,3,15.9,6.9,24.1,8.5
			C755.5,248,762,234.1,752.7,227.2z"/>
		<path class="st3" d="M734.3,202.3l-6.4-4.4c-4.2-2.9-8.7,3.7-4.5,6.6l6.4,4.4C734,211.6,738.5,205.2,734.3,202.3z"/>
		<path class="st3" d="M716,210.1c-3.8-2.4-8.1-3.7-12.7-4c-5.2-0.3-5.7,7.7-0.5,7.9c3.2,0.1,6.1,0.9,8.7,2.6
			C716,219.4,720.3,212.8,716,210.1z"/>
		<path class="st3" d="M715.3,242.7c0.5-1.9-0.3-4.5-2.5-5c-1.6-0.4-3.3-0.8-4.9-1.1c-2-0.4-4.4,0.3-5,2.5c-0.5,1.9,0.3,4.5,2.5,5
			c1.6,0.4,3.3,0.8,4.9,1.1C712.4,245.6,714.8,244.8,715.3,242.7z"/>
	</g>
	<path class="st5" d="M775.8,322.2c-2.6,0.4-5.2,0.8-7.8,1.3c-0.4-2-0.7-3.8-1.1-5.8c-0.9-5-8.5-2.9-7.7,2.1c0.3,1.7,0.5,3.3,0.9,5
		c-1.9,0.3-3.6,0.5-5.4,0.9c-5,0.8-2.9,8.5,2.1,7.7c1.6-0.3,3-0.5,4.6-0.8l1.2,7c0.9,5,8.5,2.9,7.7-2.1c-0.4-2.1-0.7-4.1-1.1-6.2
		c2.9-0.4,5.7-0.9,8.6-1.3C783,328.9,780.8,321.4,775.8,322.2z"/>
	<path class="st5" d="M72.4,82.8h-8.3c-1.1-3.7-2-7.4-3-10.9c-1.3-4.9-9-2.8-7.7,2.1c0.8,2.9,1.6,6,2.5,8.9h-3.2
		c-5.2,0-5.2,7.9,0,7.9h5.4c0.5,1.7,0.9,3.4,1.5,5.2c1.3,4.9,9,2.8,7.7-2.1c-0.3-1.1-0.5-2-0.8-3h6.2C77.5,90.7,77.5,82.8,72.4,82.8
		z"/>
	<path class="st5" d="M154.9,292c-2.1,0.8-4.4,1.5-6.5,2.3c-0.5-1.3-1.2-2.6-1.7-4c-0.9-2-3.7-2.4-5.4-1.5c-2,1.2-2.3,3.4-1.5,5.4
		c0.4,0.8,0.8,1.7,1.2,2.5c-0.8,0.3-1.6,0.5-2.4,0.8c-4.8,1.6-2.8,9.3,2.1,7.7c1.2-0.4,2.3-0.8,3.4-1.2c0.5,1.3,1.2,2.6,1.7,4
		c0.9,2,3.7,2.4,5.4,1.5c2-1.2,2.3-3.4,1.5-5.4c-0.4-0.8-0.8-1.7-1.2-2.5c1.9-0.7,3.6-1.2,5.4-1.9
		C161.9,297.9,159.8,290.3,154.9,292z"/>
	<path class="st3" d="M699.9,377.3c-4.6,1.2-9.4,1.8-14.1,2.1c-5.2,0.1-5.2,8.4,0,8.2c5.4-0.1,10.9-0.9,16.2-2.4
		C706.8,384,704.7,376,699.9,377.3z"/>
	<path class="st3" d="M203.6,351.5c-4.9,1-9.7,1.6-14.7,1.8c-3.8,0.1-3.8,5.1,0,5c5.4-0.2,10.9-0.8,16.3-1.9
		C208.9,355.6,207.3,350.7,203.6,351.5z"/>
	<path class="st7" d="M211.4,444.2c-3.4,1.6-7,2.1-10.7,1.9c-5.2-0.4-5,7.5,0,7.9c5.2,0.4,10.1-0.7,14.7-2.9
		C220.2,448.8,216.1,442.1,211.4,444.2z"/>
	<path class="st3" d="M689.1,348.3h-12.8c-5.2,0-5.2,7.9,0,7.9h12.8C694.1,356.2,694.1,348.3,689.1,348.3z"/>
	<path class="st3" d="M86.4,381.9c-4.6,1.2-9.3,1.5-13.9,1.1c-5-0.4-5,7.5,0,7.9c5.4,0.4,10.9,0,16-1.3
		C93.5,388.3,91.4,380.6,86.4,381.9z"/>
	<path class="st5" d="M689.5,121.5h-5.2c-0.4-2.1-0.9-4.2-1.5-6.4c-1.5-4.9-9.1-2.8-7.7,2.1c0.4,1.5,0.8,2.9,1.1,4.2h-3
		c-5.2,0-5.2,7.9,0,7.9h4.1c0.1,2.1,0.1,4.4,0,6.5c-0.3,5.2,7.7,5,7.9,0c0.1-2.1,0.1-4.4,0-6.5h4.2
		C694.6,129.4,694.6,121.5,689.5,121.5z"/>
	<path class="st5" d="M184.6,46.9h-9c-0.4-2.9-0.8-5.8-1.2-8.7c-0.7-5-8.3-2.9-7.7,2.1c0.3,2.3,0.7,4.4,0.9,6.6h-4
		c-5.2,0-5.2,7.9,0,7.9h5c0.3,1.7,0.5,3.4,0.8,5.2c0.7,5,8.3,2.9,7.7-2.1c-0.1-1.1-0.3-2-0.4-3h7.9
		C189.7,54.8,189.7,46.9,184.6,46.9z"/>
	<path class="st6" d="M188.4,104.1c-5.2,0-5.2,7.9,0,7.9S193.6,104.1,188.4,104.1z"/>
	<path class="st6" d="M87.4,162c-5.2,0-5.2,7.9,0,7.9C92.6,169.8,92.6,162,87.4,162z"/>
	<path class="st6" d="M203.5,312.6c-5.2,0-5.2,7.9,0,7.9C208.5,320.4,208.5,312.6,203.5,312.6z"/>
	<path class="st6" d="M669,257.7c-5.2,0-5.2,7.9,0,7.9C674,265.7,674,257.7,669,257.7z"/>
	<path class="st6" d="M96.8,306.7c-5.2,0-5.2,7.9,0,7.9C101.9,314.7,101.9,306.7,96.8,306.7z"/>
	<path class="st6" d="M303.3,26.5c-2.1,0.1-4,1.7-4,4v1.2c0,2.1,1.9,4.1,4,4c2.1-0.1,4-1.7,4-4v-1.2
		C307.3,28.3,305.4,26.4,303.3,26.5z"/>
	<path class="st6" d="M532.2,27.5c-1.6-1.5-4.1-1.6-5.6,0c-0.4,0.4-0.8,0.8-1.2,1.2c-1.5,1.5-1.6,4.1,0,5.6c1.6,1.5,4.1,1.6,5.6,0
		l1.2-1.2C533.6,31.8,533.8,29,532.2,27.5z"/>
	<path class="st6" d="M619.8,123.8h-1.2c-2.1,0-4.1,1.9-4,4c0.1,2.1,1.7,4,4,4h1.2c2.1,0,4.1-1.9,4-4
		C623.7,125.5,622,123.8,619.8,123.8z"/>
	<path class="st6" d="M748.6,163.2h-1.2c-2.1,0-4.1,1.9-4,4c0.1,2.1,1.7,4,4,4h1.2c2.1,0,4.1-1.9,4-4
		C752.4,165,750.8,163.2,748.6,163.2z"/>
	<path class="st6" d="M683.6,320.7c-5.2,0-5.2,7.9,0,7.9C688.8,328.6,688.8,320.7,683.6,320.7z"/>
	<path class="st3" d="M488.8,130.2c-8.1-2.9-17.9-2.4-26.2-2.3l0,0c-4.9-0.5-9.8-0.8-14.3-0.9c-31.7-0.9-69.3-4.6-98.5,9.3
		c-11.8,5.6-20.2,17.1-25.4,29.4c-4.2,9.8-1.3,20.2,9,24.4c6.9,2.8,14.6,3.4,21.9,4.4c7.8,1.1,15.7,1.9,23.5,2.5
		c17.2,1.2,34.7,1.1,52-0.4c18.6-1.6,37.1-4.5,55.1-9.3c14.1-3.7,21.1-12.9,20.8-27.7C506.2,147.7,500.9,134.4,488.8,130.2z"/>
	<path class="st6" d="M608.6,54.2c-5.2,0-5.2,7.9,0,7.9C613.6,62,613.6,54.2,608.6,54.2z"/>
	<path class="st6" d="M567.3,273.1h-0.9c-2.1,0-4.1,1.9-4,4c0.1,2.1,1.7,4,4,4h0.9c2.1,0,4.1-1.9,4-4
		C571.2,275,569.5,273.1,567.3,273.1z"/>
	<path class="st6" d="M529.5,295.4c-7.3-9.8-13.9-20-19.9-30.7c-11.8-21.1-20.5-43.7-26.5-67.1c-6.8-26.6-9.4-31.8-7.9-59.1
		c1.7-1.6,1.7-5-1.3-5.8c-31.9-8.3-64.9-2.1-97.3-4.8c-2-0.7-4.6,0.3-4.8,3c-1.5,39.2-3.3,56.4-12.6,94.8
		c-4.4,17.6-10.2,35-18.2,51.4c-7.4,15-20.5,29.3-22,46.4c-0.1,1.7,1.7,3.4,3.3,3.3c14.9-0.7,24.9-12.7,33.4-23.7
		c10.2-13,19.1-27,26.5-41.6c7.4-14.6,12.4-29.8,17.9-45.1c1.2-3.4,2.8-7,5.4-9.5c4-3.6,10.5-3.8,15.4-4.1c9-0.5,17.9,0.3,26.8,2.1
		c-0.1,0.7-0.1,1.5,0.3,2.1c10.9,22.3,21.7,44.5,35.8,65.1c6.6,9.7,13.8,18.8,21.7,27.3c5.3,5.6,16.2,17.4,25.2,14.6
		C540.3,311.1,532.7,299.7,529.5,295.4z"/>
	<path class="st2" d="M440.3,191.7c-12.8-2.5-28.6-0.4-39.9,7.1c-1.2-0.3-2.5,0.1-3.4,1.5c-0.7,0.9-1.2,1.9-1.9,2.9
		c-4,4-6.9,8.9-8.2,14.7c-0.1,0.5-0.1,0.9,0,1.5c-4.9,12.6-6.1,26.4,2.1,38.2c10.1,14.6,30.3,17.6,46.4,13.4
		c17.9-4.8,32.6-18.2,33.7-37.4C470.1,214.3,460.1,195.5,440.3,191.7z"/>
	<path class="st5" d="M446.7,129.1c-6-3.6-14.1-2.8-20.7-2.6c-10.2,0-20.4,0.7-30.6,1.7c-0.8,0.1-1.5,0.4-2,0.8
		c-1.7,0-3.3,1.1-3.6,3.2c-0.7,9.4-0.1,18.7,1.6,28c1.2,6.1,2.5,10.3,9.4,10.6c9.4,0.4,18.8,0,28.4,0c5,0,10.3,0.3,15.3,0
		c2.4-0.1,4.5-0.4,6.2-2.3c2.1-2.3,1.9-5.4,2-8.3c0.1-5.2,0.3-10.5,0.3-15.5C452.9,138.9,452.1,132.5,446.7,129.1z"/>
	<path class="st9" d="M464.2,156.1c-0.5-0.4-1.2-0.5-1.9-0.7c0-0.1-0.1-0.1-0.1-0.3c-1.3-1.2-3.4-1.3-4.8,0
		c-2.3,2.4-2.5,6.1-0.4,8.6c2,2.4,6,2.4,8.1,0.3C467.5,161.7,467.1,157.9,464.2,156.1z"/>
	<path class="st9" d="M462.9,133.5c-2.9-0.5-5.6,0.8-6.6,3.6c-0.1,0.4-0.1,0.9-0.1,1.5c-0.1,0.5-0.1,0.9,0,1.5
		c1.6,5.7,11,4.6,11-1.3C467.2,136,465.2,134,462.9,133.5z"/>
	<path class="st8" d="M372.9,268.8c-6.6-4.2-13.4-8.6-19.9-12.7h-0.1c0-3.4-5.6-4.8-6.6-0.9c-4.4,16.2-16.6,28.2-24.1,43
		c-3,6.2-12.8,29.7,0.4,30.9c5.8,0.5,11.6-4.5,15.8-7.8c5.3-4,10.3-8.5,14.7-13.3c9.4-10.3,16.4-22.3,21.3-35.3
		C374.9,271.2,373.9,269.5,372.9,268.8z"/>
	<path class="st8" d="M529.5,290.4c-6.5-11-12.8-22-19.2-33c-1.5-6-3.6-13-9.7-12.6c-3.7,0.3-7.8,3-11,4.8
		c-4.8,2.6-9.4,5.6-13.8,8.9c-0.7,0.5-1.1,1.2-1.3,2c-0.5,0.9-0.7,2.1-0.1,3.3c5,10.3,12.4,18.7,21.6,25.4c0,0,0.1,0,0.1,0.1
		c1.7,2,3.4,4,5.3,5.8c4.9,5.3,9.9,10.2,15.1,15c3.7,3.3,8.1,7.8,13.5,7c4.4-0.7,7.1-4.6,7.3-8.7
		C537.5,301.7,532.4,295.5,529.5,290.4z"/>
	<path class="st10" d="M440.8,216.7c-4.2-11.2-17.1-20-28.5-12.3c-1.2,0.8-1.6,2-1.5,3c-6.5,8.1-6.4,23.7-3.8,31.8
		c3,10.1,16.2,24.1,27.6,16.3C445.7,248,445,227.9,440.8,216.7z"/>
	<path class="st3" d="M446.8,232.4c-0.8-1.3-1.9-2.5-3.4-3.3c-0.7-1.1-2-1.9-3.6-1.6c-0.9,0.1-1.7,0.3-2.6,0.4
		c-3.7,0.1-7.5,1.3-10.7,1.9c-0.5,0.1-0.9,0.3-1.3,0.5c-0.1,0-0.1-0.1-0.3-0.1c-4.4-1.6-15.7-6.9-19.9-3c-4.4,3.8-0.9,13.3,1.1,17.4
		c3,6.4,8.9,11.8,15.7,13.7c6.4,1.6,11.3-1.2,15.4-5.2c6.2,4.1,15.1,1.5,17.5-6.2C456.4,241.5,452.1,232.5,446.8,232.4z"/>
	<path class="st9" d="M455.6,190.5c-9.4-1.3-19.4-0.5-28.9-0.7c-9.5-0.3-19.1-0.9-28.6-0.7c-5.4,0.1-11.9,2.1-13,8.5
		c-0.4,2.4,0.4,4.5,1.9,6.1c0.3,1.5,1.3,2.6,3.2,2.5c19.9-1.2,39.2,0.1,59,1.7c5.6,0.4,11.8-0.7,13.9-6.5
		C465.5,195.4,461.3,191.3,455.6,190.5z"/>
	<path class="st3" d="M507.8,253.7c-9,3.8-18,7.5-27,11.3c-4.6,2-2.6,9.7,2.1,7.7c9-3.8,18-7.5,27-11.3
		C514.5,259.4,512.6,251.7,507.8,253.7z"/>
	<path class="st3" d="M369,277.5c-8.6-4.2-16-9.7-22.7-16.3c-3.6-3.7-9.1,2-5.6,5.6c7.1,7.3,15.1,13.1,24.4,17.6
		C369.6,286.5,373.5,279.6,369,277.5z"/>
	<path class="st3" d="M409.3,217.8c-5.2,0-5.2,7.9,0,7.9C414.5,225.7,414.5,217.8,409.3,217.8z"/>
	<path class="st3" d="M427.3,216.5h-0.4c-2.1,0-4.1,1.9-4,4c0.1,2.1,1.7,4,4,4h0.4c2.1,0,4.1-1.9,4-4
		C431.2,218.3,429.5,216.5,427.3,216.5z"/>
	<path class="st3" d="M423.8,207.3c-3.8-0.1-7.7-0.1-11.5,0.1c-5,0.4-5.2,8.3,0,7.9c3.8-0.3,7.7-0.3,11.5-0.1
		C428.9,215.4,428.9,207.6,423.8,207.3z"/>
	<path class="st3" d="M432.1,157.5c-1.9-0.1-4.1-0.9-5.6-1.1c-2.4-0.3-4.9-0.5-7.3-0.8c-5.7-0.5-11.4-0.7-17-0.5
		c-5.2,0-5.2,7.9,0,7.9c6.1-0.1,12.2,0.1,18.2,0.7c4.8,0.4,10.6,2.6,15.1,1.5c1.2-0.3,2.5-1.5,2.8-2.8l0.1-0.5
		C439.3,157.7,434.5,155.6,432.1,157.5z"/>
	<path class="st3" d="M435,137.2c-4.6-1.2-8.7-0.7-13.4,0c-6.1,0.9-12,1.1-18,0.7c-5.2-0.4-5,7.5,0,7.9c4.9,0.4,9.8,0.4,14.7-0.1
		c4.9-0.5,9.8-2,14.6-0.7C437.9,146.1,440.1,138.6,435,137.2z"/>
	<path class="st7" d="M306,420.7c-8.5,0.3-20.8,2.8-23.6,10.9c-4,11.3,11.9,13.3,19.1,12.5c7.9-0.8,21.9-4.5,23.2-14.2
		C326.2,419.1,313.7,419.1,306,420.7z M313.6,434.8c-4.2,1-9.7,1.6-14.3,1.7c-2.5,0-4.8,0.2-6.9-0.6c-2.8-0.4-2.9-0.7-0.4-1l2-0.4
		c3.2-0.6,6.5-0.9,9.8-1c0.7,0.1,1.5,0.1,2.3,0c0.3,0,0.5,0,0.8-0.1c0.7,0,1.3,0,2,0c1.3,0,2.3-0.2,2.9-0.5c0.7,0,1.3,0,1.9,0
		C316.8,433.4,315.8,434.2,313.6,434.8z"/>
	<path class="st3" d="M477.2,383.5c-3.6,0.3-7.1,0.7-10.7,0.9c-2.1,0.1-4,1.7-4,4c0,2,1.9,4.1,4,4c3.6-0.3,7.1-0.7,10.7-0.9
		c2.1-0.1,4-1.7,4-4C481.2,385.5,479.4,383.2,477.2,383.5z"/>
	<path class="st3" d="M362.8,351.9h-11.5c-5.2,0-5.2,7.9,0,7.9h11.5C367.8,359.7,367.8,351.9,362.8,351.9z"/>
</g>
<path class="st5" d="M745.1,41.6c-4.8,1.2-8.9-0.8-10.7-4.8c-0.1-1.7-0.4-3.4-1.1-5.2c-0.1-0.5-0.3-1.1-0.5-1.5
	c-0.3-0.7-0.7-1.3-1.1-2c-2.5-4.4-9.4-0.4-6.9,4c0.3,0.4,0.4,0.8,0.7,1.2c0.1,1.7,0.4,3.4,0.9,5c-0.1,2.4-0.9,4.6-2.4,6.6
	c-2,1.1-3.8,2.6-5.3,4.8c-2.4,3.4,2.1,7.1,5.4,5.4c2-1.1,3.6-2.4,5-4c2.9-0.5,5.8,1.9,6.4,5.3c0.8,5,8.5,2.9,7.7-2.1
	c-0.4-2.6,1.5-4.8,3.8-5.4C752.3,47.9,750.2,40.3,745.1,41.6z"/>
<path class="st5" d="M257,103.1c-4.8,1.2-8.9-0.8-10.7-4.8c-0.1-1.7-0.4-3.4-1.1-5.2c-0.1-0.5-0.3-1.1-0.5-1.5
	c-0.3-0.7-0.7-1.3-1.1-2c-2.5-4.4-9.4-0.4-6.9,4c0.3,0.4,0.4,0.8,0.7,1.2c0.1,1.7,0.4,3.4,0.9,5c-0.1,2.4-0.9,4.6-2.4,6.6
	c-2,1.1-3.8,2.6-5.3,4.8c-2.4,3.4,2.1,7.1,5.4,5.4c2-1.1,3.6-2.4,5-4c2.9-0.5,5.8,1.9,6.4,5.3c0.8,5,8.5,2.9,7.7-2.1
	c-0.4-2.6,1.5-4.8,3.8-5.4C264.2,109.4,262.1,101.8,257,103.1z"/>
<path class="st5" d="M257,244.3c-4.8,1.2-8.9-0.8-10.7-4.8c-0.1-1.7-0.4-3.4-1.1-5.2c-0.1-0.5-0.3-1.1-0.5-1.5
	c-0.3-0.7-0.7-1.3-1.1-2c-2.5-4.4-9.4-0.4-6.9,4c0.3,0.4,0.4,0.8,0.7,1.2c0.1,1.7,0.4,3.4,0.9,5c-0.1,2.4-0.9,4.6-2.4,6.6
	c-2,1.1-3.8,2.6-5.3,4.8c-2.4,3.4,2.1,7.1,5.4,5.4c2-1.1,3.6-2.4,5-4c2.9-0.5,5.8,1.9,6.4,5.3c0.8,5,8.5,2.9,7.7-2.1
	c-0.4-2.6,1.5-4.8,3.8-5.4C264.2,250.6,262.1,243,257,244.3z"/>
<path class="st5" d="M623.3,25.1c-4.8,1.2-8.9-0.8-10.7-4.8c-0.1-1.7-0.4-3.4-1.1-5.2c-0.1-0.5-0.3-1.1-0.5-1.5
	c-0.3-0.7-0.7-1.3-1.1-2c-2.5-4.4-9.4-0.4-6.9,4c0.3,0.4,0.4,0.8,0.7,1.2c0.1,1.7,0.4,3.4,0.9,5c-0.1,2.4-0.9,4.6-2.4,6.6
	c-2,1.1-3.8,2.6-5.3,4.8c-2.4,3.4,2.1,7.1,5.4,5.4c2-1.1,3.6-2.4,5-4c2.9-0.5,5.8,1.9,6.4,5.3c0.8,5,8.5,2.9,7.7-2.1
	c-0.4-2.6,1.5-4.8,3.8-5.4C630.5,31.4,628.4,23.8,623.3,25.1z"/>
<path class="st5" d="M567.1,82.8c-4.8,1.2-8.9-0.8-10.7-4.8c-0.1-1.7-0.4-3.4-1.1-5.2c-0.1-0.5-0.3-1.1-0.5-1.5
	c-0.3-0.7-0.7-1.3-1.1-2c-2.5-4.4-9.4-0.4-6.9,4c0.3,0.4,0.4,0.8,0.7,1.2c0.1,1.7,0.4,3.4,0.9,5c-0.1,2.4-0.9,4.6-2.4,6.6
	c-2,1.1-3.8,2.6-5.3,4.8c-2.4,3.4,2.1,7.1,5.4,5.4c2-1.1,3.6-2.4,5-4c2.9-0.5,5.8,1.9,6.4,5.3c0.8,5,8.5,2.9,7.7-2.1
	c-0.4-2.6,1.5-4.8,3.8-5.4C574.3,89.1,572.2,81.5,567.1,82.8z"/>
<path class="st6" d="M33.5,30.6c-5.2,0-5.2,7.9,0,7.9C38.6,38.5,38.6,30.6,33.5,30.6z"/>
<path class="st6" d="M764.6,87.8c-5.2,0-5.2,7.9,0,7.9C769.7,95.7,769.7,87.8,764.6,87.8z"/>
<path class="st6" d="M685.4,30.6c-5.2,0-5.2,7.9,0,7.9C690.5,38.5,690.5,30.6,685.4,30.6z"/>
<path class="st6" d="M166.3,236.9c-5.2,0-5.2,7.9,0,7.9C171.4,244.8,171.4,236.9,166.3,236.9z"/>
<path class="st6" d="M26.2,300.1c-5.2,0-5.2,7.9,0,7.9C31.3,308,31.3,300.1,26.2,300.1z"/>
<path class="st6" d="M746.1,287.9c-5.2,0-5.2,7.9,0,7.9C751.2,295.8,751.2,287.9,746.1,287.9z"/>
<path class="st6" d="M782.9,179.5c-5.2,0-5.2,7.9,0,7.9C788,187.4,788,179.5,782.9,179.5z"/>
<path class="st6" d="M13.8,175.5c-5.2,0-5.2,7.9,0,7.9C18.9,183.4,18.9,175.5,13.8,175.5z"/>
<path class="st6" d="M111,91.3c-5.2,0-5.2,7.9,0,7.9C116.1,99.2,116.1,91.3,111,91.3z"/>
<polyline class="st2" points="799.3,400 763.3,400 763.3,356.6 799.3,356.6 799.3,400 "/>
<path class="st3" d="M534.5,338.3c-9.6,0.2-23.7,2.2-26.9,8.4c-4.5,8.8,21.8,9.7,21.8,9.7s24.9-3.5,26.4-11
	C557.5,337.1,543.4,337.1,534.5,338.3z M541.9,346.1c-7.6-2.4-9.7,2.7-14.4,2.8c-2.5,0.1-4.8,0.3-6.9-1c-2.8-0.6-2.9-1.2-0.4-1.8
	l2-0.7c3.2-1,6.5-1.6,9.8-1.8c0.7,0.2,1.5,0.2,2.3,0c0.3,0,0.5-0.1,0.8-0.2c0.7,0,1.3,0,2,0c1.3,0,2.3-0.3,2.9-0.8
	c0.7-0.1,1.3,0,1.9,0.1C545.1,343.8,549.5,348.5,541.9,346.1z"/>
<path class="st3" d="M660.8,382.1c-6.8-3.4-17.5-4-27.3-3.2c-1.2-0.1-2.5-0.1-3.9,0.1c-1.5,0.3-3.4,0.6-5.1,1
	c-1.2,0.2-2.2,0.4-3.2,0.6c-0.2,0.1-0.7,0.1-0.8,0.2c-9,2-18.7,5.2-13.9,9.9c6.1,6.1,28,4.5,38.7,2.9
	C654.7,392.1,671.9,387.7,660.8,382.1z M647.1,386.3c-2.9,0.7-6.8,1.3-10.2,1.6c-2.9,0.3-5.8,0.4-9,0.4c-2,0-4.4-0.3-6.5-0.3
	c0.7-0.2,1.4-0.4,2-0.6c2.7-0.7,5.4-1.4,8.3-1.9c4.9-0.7,9.8-0.7,15.1,0C649.6,385.9,650.5,385.4,647.1,386.3z"/>
</svg>
